<svg width="16" height="15" viewBox="0 0 16 15" fill="none" xmlns="http://www.w3.org/2000/svg">
<path d="M7.91667 14.5271L6.76875 13.4979C5.43611 12.2972 4.33437 11.2615 3.46354 10.3906C2.59271 9.51979 1.9 8.73802 1.38542 8.04531C0.870833 7.3526 0.511285 6.71597 0.306771 6.13542C0.102257 5.55486 0 4.96111 0 4.35417C0 3.11389 0.415625 2.07812 1.24687 1.24687C2.07812 0.415625 3.11389 0 4.35417 0C5.04028 0 5.6934 0.145139 6.31354 0.435417C6.93368 0.725694 7.46806 1.13472 7.91667 1.6625C8.36528 1.13472 8.89965 0.725694 9.51979 0.435417C10.1399 0.145139 10.7931 0 11.4792 0C12.7194 0 13.7552 0.415625 14.5865 1.24687C15.4177 2.07812 15.8333 3.11389 15.8333 4.35417C15.8333 4.96111 15.7311 5.55486 15.5266 6.13542C15.322 6.71597 14.9625 7.3526 14.4479 8.04531C13.9333 8.73802 13.2406 9.51979 12.3698 10.3906C11.499 11.2615 10.3972 12.2972 9.06458 13.4979L7.91667 14.5271ZM7.91667 12.3896C9.18333 11.2549 10.2257 10.2818 11.0437 9.47031C11.8618 8.65885 12.5083 7.95295 12.9833 7.3526C13.4583 6.75226 13.7882 6.21788 13.9729 5.74948C14.1576 5.28108 14.25 4.81597 14.25 4.35417C14.25 3.5625 13.9861 2.90278 13.4583 2.375C12.9306 1.84722 12.2708 1.58333 11.4792 1.58333C10.859 1.58333 10.2851 1.75816 9.75729 2.10781C9.22951 2.45747 8.86667 2.90278 8.66875 3.44375H7.16458C6.96667 2.90278 6.60382 2.45747 6.07604 2.10781C5.54826 1.75816 4.97431 1.58333 4.35417 1.58333C3.5625 1.58333 2.90278 1.84722 2.375 2.375C1.84722 2.90278 1.58333 3.5625 1.58333 4.35417C1.58333 4.81597 1.67569 5.28108 1.86042 5.74948C2.04514 6.21788 2.375 6.75226 2.85 7.3526C3.325 7.95295 3.97153 8.65885 4.78958 9.47031C5.60764 10.2818 6.65 11.2549 7.91667 12.3896Z" fill="#5F6368"/>
</svg>
