<svg width="32" height="32" viewBox="0 0 32 32" fill="none" xmlns="http://www.w3.org/2000/svg">
<path opacity="0.3" d="M31.5 16C31.5 24.5604 24.5604 31.5 16 31.5C7.43959 31.5 0.5 24.5604 0.5 16C0.5 7.43959 7.43959 0.5 16 0.5C24.5604 0.5 31.5 7.43959 31.5 16Z" stroke="white"/>
<path d="M18.4226 11.9674C18.748 11.6699 18.748 11.1874 18.4226 10.8899C18.0972 10.5924 17.5695 10.5924 17.2441 10.8899L12.2441 15.4613C11.9286 15.7498 11.9176 16.2142 12.219 16.5149L16.8024 21.0863C17.1134 21.3965 17.6405 21.4175 17.9798 21.1331C18.319 20.8488 18.342 20.3669 18.031 20.0567L13.9868 16.023L18.4226 11.9674Z" fill="white"/>
</svg>
