<svg width="16" height="20" viewBox="0 0 16 20" fill="none" xmlns="http://www.w3.org/2000/svg">
<path d="M4.31581 6.99986V4.36127C4.31581 3.33541 4.83999 2.38068 5.70555 1.83005L6.16482 1.53788C7.09999 0.94296 8.28698 0.912129 9.25177 1.45769L9.95039 1.85275C10.8917 2.38504 11.4737 3.38275 11.4737 4.46415V6.99986M3.94739 18.9999H11.4211C13.0779 18.9999 14.4211 17.6567 14.4211 15.9999V10.4284C14.4211 8.77158 13.0779 7.42843 11.4211 7.42843H3.94739C2.29053 7.42843 0.947388 8.77157 0.947388 10.4284V15.9999C0.947388 17.6567 2.29053 18.9999 3.94739 18.9999Z" stroke="#8C8C8C" stroke-width="1.5"/>
<ellipse cx="7.68424" cy="12.9998" rx="2.10526" ry="2.14286" fill="#8C8C8C"/>
</svg>
